<svg xmlns="http://www.w3.org/2000/svg" viewBox="0 0 1024 1024" preserveAspectRatio="xMidYMid meet">
  <rect width="1024" height="1024" rx="192" fill="#000000"/>
  <svg x="152" y="152" width="720" height="720" viewBox="0 0 775.720043 804.375439" preserveAspectRatio="xMidYMid meet">
    <g transform="translate(-280.257325,1058.385113) scale(0.100000,-0.100000)" fill="#62b77c" stroke="none">
<path d="M6837 10583 l-1288 -3 -10 -28 c-6 -15 -84 -243 -174 -507 -90 -264
-205 -599 -255 -745 -110 -318 -479 -1401 -741 -2175 -214 -631 -475 -1399
-676 -1985 -74 -217 -170 -498 -213 -625 -104 -304 -265 -774 -385 -1120 -162
-467 -287 -829 -292 -842 -4 -10 660 -13 3298 -13 l3304 0 49 93 c27 50 98
182 159 292 60 110 198 369 308 575 l200 375 219 145 220 145 -2582 5 -2581 5
184 139 c101 77 187 142 191 145 7 6 92 251 328 946 137 403 275 803 440 1270
94 267 251 720 345 995 29 85 110 319 180 520 70 201 149 428 175 505 26 77
64 185 83 240 65 184 394 1139 431 1250 l36 110 222 143 c197 126 218 142 187
142 -19 0 -43 1 -54 3 -11 1 -599 1 -1308 0z"/>
</g>
  </svg>
</svg>
