<svg xmlns="http://www.w3.org/2000/svg" viewBox="0 0 1024 1024" preserveAspectRatio="xMidYMid meet">
  <rect width="1024" height="1024" rx="192" fill="#000000"/>
  <svg x="210" y="152" width="603" height="720" viewBox="0 0 140 167" preserveAspectRatio="xMidYMid meet">
    <g transform="translate(0.000000,167.000000) scale(0.100000,-0.100000)" fill="#ffffff" stroke="none">
      <path d="M295 1658 c-4 -12 -23 -121 -125 -703 -23 -126 -70 -389 -106 -584
-54 -288 -63 -355 -52 -362 7 -5 308 -8 668 -6 l655 2 32 160 c18 88 32 172
33 188 l0 27 -440 0 -440 0 -15 24 c-14 21 -8 66 90 627 58 332 105 612 105
622 0 16 -16 17 -200 17 -152 0 -202 -3 -205 -12z"/>
    </g>
  </svg>
</svg>
