<svg xmlns="http://www.w3.org/2000/svg" viewBox="0 0 1240 472" preserveAspectRatio="xMidYMid meet">
  <rect width="1240" height="472" rx="48" fill="#62b77c"/>
  <svg x="66" y="68" width="1108" height="336" viewBox="0 0 1108 336">
    <g transform="translate(0.000000,336.000000) scale(0.100000,-0.100000)" fill="#0c1616" stroke="none">
      <path d="M170 3345 c-209 -65 -232 -374 -35 -478 29 -16 58 -21 110 -22 93 0
154 30 209 103 l39 52 418 0 418 0 15 -22 c14 -19 16 -71 16 -369 0 -322 -1
-347 -18 -362 -17 -15 -62 -17 -435 -17 l-417 0 -24 39 c-90 142 -273 164
-391 46 -57 -56 -75 -102 -75 -189 0 -99 44 -173 131 -221 69 -37 161 -40 225
-7 39 20 124 105 124 123 0 5 204 9 454 9 l454 0 53 28 c39 20 62 41 84 77 29
48 30 51 35 214 l5 166 296 3 c179 1 307 -2 323 -8 l26 -10 0 -815 0 -815 -23
-15 c-21 -13 -68 -15 -323 -13 l-299 3 -5 160 c-5 152 -6 162 -33 207 -15 26
-41 57 -58 69 -66 46 -94 49 -555 49 l-433 0 -15 29 c-20 39 -91 98 -133 112
-19 6 -65 9 -103 7 -87 -5 -151 -42 -195 -112 -26 -42 -30 -61 -33 -130 -3
-73 -1 -86 25 -136 62 -119 213 -171 328 -113 39 20 93 71 111 105 l15 28 429
0 c414 0 430 -1 440 -19 14 -27 14 -695 0 -722 -10 -18 -26 -19 -440 -19
l-429 0 -15 28 c-21 41 -87 98 -131 112 -20 7 -67 10 -105 8 -86 -5 -151 -42
-195 -112 -24 -40 -30 -62 -33 -122 -3 -41 1 -88 8 -110 16 -49 84 -122 135
-145 48 -22 151 -25 199 -5 42 17 103 71 122 107 l14 28 458 3 c450 3 458 3
499 25 51 27 96 82 112 132 6 21 11 104 11 184 l0 146 348 3 349 3 49 30 c30
19 60 49 79 79 l30 49 3 389 3 388 230 0 c127 0 229 -4 229 -9 0 -20 97 -115
135 -132 61 -28 149 -25 213 7 56 28 92 64 123 126 85 168 -43 378 -231 378
-90 0 -187 -57 -226 -132 l-15 -28 -229 0 -229 0 -3 378 c-3 373 -3 377 -26
421 -29 54 -65 88 -117 112 -36 17 -71 19 -377 19 l-338 0 0 150 c0 169 -6
194 -64 258 -65 71 -71 72 -570 72 l-441 0 -23 40 c-28 49 -78 88 -138 106
-58 17 -95 17 -154 -1z m115 -159 c40 -17 55 -42 55 -91 0 -82 -100 -116 -162
-55 -26 27 -30 36 -25 67 7 41 39 80 71 86 11 2 22 5 24 6 1 0 18 -5 37 -13z
m33 -991 c34 -40 30 -96 -9 -129 -79 -66 -188 11 -149 105 26 62 113 75 158
24z m2857 -431 c29 -19 48 -76 35 -109 -34 -91 -168 -84 -186 9 -6 37 14 88
43 105 27 16 81 13 108 -5z m-2864 -473 c62 -62 24 -161 -61 -161 -46 0 -86
30 -95 71 -21 93 89 156 156 90z m3 -967 c35 -35 36 -92 2 -131 -47 -55 -145
-26 -161 48 -7 31 15 82 42 98 34 20 89 13 117 -15z"/>
      <path d="M4255 2488 c-4 -12 -23 -121 -125 -703 -23 -126 -70 -389 -106 -584
-54 -288 -63 -355 -52 -362 7 -5 308 -8 668 -6 l655 2 32 160 c18 88 32 172
33 188 l0 27 -440 0 -440 0 -15 24 c-14 21 -8 66 90 627 58 332 105 612 105
622 0 16 -16 17 -200 17 -152 0 -202 -3 -205 -12z"/>
      <path d="M5785 2488 c-6 -20 -65 -333 -65 -346 0 -9 182 -12 733 -12 l732 0
125 177 c69 97 127 181 128 185 2 4 -368 8 -822 8 -653 0 -827 -3 -831 -12z"/>
      <path d="M8286 2478 c-13 -13 -214 -306 -446 -653 -232 -346 -475 -709 -540
-805 -97 -144 -115 -176 -101 -182 22 -9 413 -10 427 0 18 13 291 410 625 910
104 156 191 277 194 270 9 -27 145 -496 145 -502 0 -3 -69 -6 -154 -6 l-153 0
-116 -187 -116 -188 322 -3 323 -2 38 -143 c21 -78 44 -145 50 -149 6 -4 105
-8 219 -8 161 0 209 3 213 13 7 19 -421 1570 -446 1617 -19 36 -45 40 -254 40
-199 0 -206 -1 -230 -22z"/>
      <path d="M9855 2483 c-155 -33 -292 -135 -353 -263 -33 -71 -45 -126 -137
-660 -65 -371 -67 -420 -20 -517 54 -109 149 -178 280 -202 75 -14 727 -14
815 -1 95 15 196 68 268 141 63 64 122 162 141 235 16 59 111 584 111 612 l0
22 -400 0 c-220 0 -400 -1 -400 -3 0 -2 -16 -82 -35 -177 -19 -95 -35 -175
-35 -177 0 -2 88 -3 195 -3 160 0 195 -3 195 -14 0 -45 -35 -185 -52 -209 -38
-53 -63 -57 -343 -57 -377 0 -370 -6 -320 280 14 79 39 228 55 331 31 199 43
235 88 268 52 36 105 41 518 41 l401 0 127 179 c69 98 126 181 126 185 0 3
-260 6 -577 5 -474 0 -591 -3 -648 -16z"/>
      <path d="M5665 1838 c-4 -11 -165 -865 -182 -964 -4 -26 -2 -32 18 -37 30 -8
1466 -9 1496 -1 24 6 23 5 69 227 13 65 24 125 24 133 0 12 -78 14 -560 14
l-560 0 1 23 c0 12 10 74 22 137 l22 115 457 3 456 2 34 48 c19 26 76 104 126
174 51 70 92 129 92 132 0 3 -340 6 -755 6 -596 0 -757 -3 -760 -12z"/>
    </g>
  </svg>
</svg>
