<svg xmlns="http://www.w3.org/2000/svg" viewBox="0 0 64 64">
  <rect width="64" height="64" rx="12" fill="#62b77c"/>
  <svg x="11" y="11" width="42" height="42" viewBox="0 0 584 574" fill="#0c1616">
    <g transform="translate(0.000000,574.000000) scale(0.100000,-0.100000)" stroke="none">
<path d="M460 5596 c-167 -45 -280 -167 -316 -338 -58 -279 195 -542 479 -498
128 20 240 93 302 199 l30 51 696 0 c662 0 697 -1 712 -18 15 -17 17 -73 17
-604 0 -532 -1 -587 -17 -599 -13 -12 -137 -14 -711 -14 l-696 0 -32 55 c-61
105 -173 180 -298 200 -230 37 -447 -124 -486 -360 -21 -126 28 -271 124 -365
198 -192 511 -153 663 83 l34 52 734 0 c720 0 735 0 790 21 78 29 164 111 201
191 l29 63 3 258 3 257 518 0 c489 0 519 -1 534 -18 16 -17 17 -124 17 -1340
l0 -1321 -26 -20 c-26 -21 -36 -21 -535 -21 l-507 0 -4 252 -3 253 -28 58
c-37 75 -108 146 -182 183 l-60 29 -744 5 -745 5 -29 50 c-113 194 -349 264
-555 164 -121 -59 -209 -181 -232 -322 -20 -130 36 -286 134 -373 210 -185
511 -137 660 104 l26 42 688 0 c606 0 690 -2 710 -16 l22 -15 0 -583 c0 -487
-2 -585 -14 -602 -14 -18 -33 -19 -712 -19 l-699 0 -24 45 c-36 65 -111 134
-187 171 -84 42 -206 51 -300 24 -165 -48 -276 -178 -305 -357 -23 -144 56
-316 185 -404 203 -137 464 -80 602 133 l34 53 743 2 742 3 57 27 c74 34 146
107 184 183 l29 60 5 255 5 255 565 5 c549 5 566 6 610 26 93 44 163 119 204
217 20 51 21 67 26 667 l5 615 345 2 c190 0 360 -1 378 -3 25 -4 38 -14 58
-47 182 -293 600 -276 752 32 36 73 37 78 37 186 0 108 -1 113 -38 187 -105
214 -349 302 -563 204 -66 -30 -163 -120 -195 -181 l-24 -45 -377 0 -378 0 0
588 c0 499 -2 597 -16 647 -30 118 -103 206 -214 259 l-65 31 -557 3 -557 3
-3 247 -3 247 -29 60 c-57 115 -163 194 -287 215 -40 6 -329 10 -754 10 l-690
0 -30 51 c-95 160 -292 243 -465 195z m182 -283 c67 -40 94 -153 51 -212 -52
-69 -129 -89 -203 -51 -99 51 -105 193 -10 258 41 28 118 30 162 5z m-4 -1573
c47 -29 72 -76 72 -135 0 -88 -57 -145 -146 -145 -121 0 -191 120 -131 224 41
71 136 98 205 56z m4705 -724 c104 -43 127 -180 43 -254 -65 -57 -158 -51
-215 13 -51 59 -53 137 -4 196 47 55 112 72 176 45z m-4695 -763 c87 -65 86
-198 0 -251 -54 -33 -97 -36 -147 -10 -56 29 -82 64 -88 120 -7 60 24 120 75
148 46 25 121 22 160 -7z m0 -1570 c118 -88 63 -273 -82 -275 -116 -2 -190
117 -137 220 28 56 80 84 144 79 28 -3 60 -13 75 -24z"/>
    </g>
  </svg>
</svg>
