<svg xmlns="http://www.w3.org/2000/svg" viewBox="0 0 137 24" width="137" height="24" preserveAspectRatio="xMidYMid meet" role="img" aria-label="LEAG">
  <g fill="#f4f5f4" stroke="none">
    <svg x="0" y="0" width="24" height="24" viewBox="0 0 1024 1024" overflow="visible">
      <svg x="152" y="152" width="720" height="720" viewBox="0 0 1000.198673 854.413134" preserveAspectRatio="xMidYMid meet">
        <g transform="translate(-145.066056,1078.589491) scale(0.100000,-0.100000)" fill="#f4f5f4" stroke="none">
          <path d="M3140 10779 c-295 -45 -563 -269 -655 -549 -49 -149 -56 -269 -25 -418 49 -239 211 -445 434 -552 114 -54 183 -71 326 -77 142 -6 247 13 363 66 141 63 288 190 356 307 19 33 41 67 49 77 14 16 81 17 1151 17 625 0 1141 -4 1146 -8 6 -4 55 -79 110 -167 54 -88 137 -221 184 -295 51 -83 84 -144 83 -159 -1 -13 -27 -156 -57 -319 -30 -162 -54 -297 -52 -299 3 -2 428 -3 946 -3 927 0 941 0 941 -20 0 -22 -80 -491 -216 -1260 -19 -107 -34 -204 -34 -216 0 -17 112 -165 298 -391 l34 -43 -33 -31 c-68 -63 -325 -295 -372 -335 l-48 -40 -24 -130 c-14 -71 -43 -223 -64 -339 -42 -226 -121 -635 -174 -910 l-33 -170 -925 -3 -926 -2 -21 -113 c-12 -61 -38 -204 -59 -317 l-37 -205 -207 -220 c-114 -121 -219 -235 -234 -253 l-27 -32 -1196 2 -1197 3 -40 80 c-81 161 -241 290 -420 336 -99 26 -266 25 -371 -1 -245 -63 -458 -238 -577 -475 -62 -125 -79 -194 -84 -350 -5 -123 -3 -151 16 -220 90 -327 366 -520 716 -502 163 8 292 54 431 153 77 54 197 183 236 251 l30 53 1323 0 1323 0 244 267 c133 147 290 319 348 383 58 64 184 203 280 308 l175 192 738 0 738 0 183 165 183 165 47 242 c26 134 87 446 136 693 48 248 93 483 100 522 12 71 13 74 68 120 32 27 134 113 227 193 94 80 185 157 203 173 l34 27 381 -2 382 -3 35 -65 c49 -91 185 -225 270 -267 118 -57 186 -74 311 -80 178 -8 315 28 460 122 246 159 382 407 382 695 -1 387 -266 679 -648 715 -190 19 -421 -66 -586 -214 -58 -51 -143 -159 -173 -218 l-17 -33 -373 0 -373 0 -154 188 c-84 103 -159 194 -166 203 -12 15 0 97 91 595 146 802 161 893 149 924 -5 14 -54 94 -108 178 l-99 152 -781 0 -782 0 -141 233 c-78 127 -251 412 -385 632 l-243 400 -1332 3 -1333 2 -10 27 c-22 57 -103 165 -179 236 -90 85 -211 153 -330 187 -88 24 -246 33 -340 19z m262 -498 c62 -29 119 -86 149 -147 34 -70 38 -179 9 -256 -99 -265 -473 -295 -598 -48 -58 115 -52 224 16 324 47 68 88 102 160 133 75 31 193 29 264 -6z m7402 -3482 c23 -6 65 -27 92 -48 173 -130 136 -415 -68 -526 -69 -38 -184 -47 -255 -20 -95 37 -167 132 -179 239 -5 44 -2 71 17 128 19 62 32 82 83 134 92 92 194 123 310 93z m-8467 -3464 c67 -20 134 -80 164 -147 34 -77 33 -182 -3 -260 -75 -162 -247 -249 -402 -204 -204 60 -254 326 -94 502 96 104 217 144 335 109z"/>
          <path d="M2935 8386 c-119 -28 -200 -62 -285 -119 -351 -238 -462 -711 -250 -1067 80 -135 194 -236 345 -306 103 -47 182 -64 311 -64 167 0 328 49 452 137 75 53 184 167 227 237 l40 65 1263 1 1262 0 68 73 c234 248 698 746 759 813 l72 81 -232 6 c-128 4 -303 7 -389 7 l-158 0 -162 -155 -162 -155 -1150 2 -1149 3 -51 85 c-102 170 -263 293 -452 345 -83 22 -283 28 -359 11z m276 -485 c237 -122 230 -448 -13 -572 -65 -34 -167 -37 -242 -9 -126 48 -202 168 -194 305 9 138 88 240 226 292 54 20 169 12 223 -16z"/>
          <path d="M2600 6100 c-145 -14 -260 -56 -385 -141 -234 -159 -375 -419 -375 -697 0 -128 20 -223 70 -327 90 -186 246 -315 450 -371 92 -25 280 -25 380 0 204 51 395 188 505 361 21 33 43 63 49 67 6 4 533 8 1172 8 l1160 0 112 -165 113 -165 375 0 375 0 -34 53 c-19 28 -114 176 -212 327 -97 151 -225 350 -284 442 l-106 168 -1317 0 -1318 0 -29 58 c-105 208 -311 356 -524 377 -34 3 -71 7 -82 9 -11 1 -54 -1 -95 -4z m135 -477 c108 -36 180 -151 178 -280 -2 -120 -87 -248 -201 -301 -81 -38 -185 -38 -258 0 -240 125 -190 486 79 579 66 23 139 24 202 2z"/>
        </g>
      </svg>
    </svg>
    <svg x="36" y="0" width="101" height="24" viewBox="0 0 712 167" preserveAspectRatio="xMidYMid meet">
      <g transform="translate(0.000000,167.000000) scale(0.100000,-0.100000)" fill="#f4f5f4" stroke="none">
        <path d="M295 1658 c-4 -12 -23 -121 -125 -703 -23 -126 -70 -389 -106 -584 -54 -288 -63 -355 -52 -362 7 -5 308 -8 668 -6 l655 2 32 160 c18 88 32 172 33 188 l0 27 -440 0 -440 0 -15 24 c-14 21 -8 66 90 627 58 332 105 612 105 622 0 16 -16 17 -200 17 -152 0 -202 -3 -205 -12z"/>
        <path d="M1825 1658 c-6 -20 -65 -333 -65 -346 0 -9 182 -12 733 -12 l732 0 125 177 c69 97 127 181 128 185 2 4 -368 8 -822 8 -653 0 -827 -3 -831 -12z"/>
        <path d="M4326 1648 c-13 -13 -214 -306 -446 -653 -232 -346 -475 -709 -540 -805 -97 -144 -115 -176 -101 -182 22 -9 413 -10 427 0 18 13 291 410 625 910 104 156 191 277 194 270 9 -27 145 -496 145 -502 0 -3 -69 -6 -154 -6 l-153 0 -116 -187 -116 -188 322 -3 323 -2 38 -143 c21 -78 44 -145 50 -149 6 -4 105 -8 219 -8 161 0 209 3 213 13 7 19 -421 1570 -446 1617 -19 36 -45 40 -254 40 -199 0 -206 -1 -230 -22z"/>
        <path d="M5895 1653 c-155 -33 -292 -135 -353 -263 -33 -71 -45 -126 -137 -660 -65 -371 -67 -420 -20 -517 54 -109 149 -178 280 -202 75 -14 727 -14 815 -1 95 15 196 68 268 141 63 64 122 162 141 235 16 59 111 584 111 612 l0 22 -400 0 c-220 0 -400 -1 -400 -3 0 -2 -16 -82 -35 -177 -19 -95 -35 -175 -35 -177 0 -2 88 -3 195 -3 160 0 195 -3 195 -14 0 -45 -35 -185 -52 -209 -38 -53 -63 -57 -343 -57 -377 0 -370 -6 -320 280 14 79 39 228 55 331 31 199 43 235 88 268 52 36 105 41 518 41 l401 0 127 179 c69 98 126 181 126 185 0 3 -260 6 -577 5 -474 0 -591 -3 -648 -16z"/>
        <path d="M1705 1008 c-4 -11 -165 -865 -182 -964 -4 -26 -2 -32 18 -37 30 -8 1466 -9 1496 -1 24 6 23 5 69 227 13 65 24 125 24 133 0 12 -78 14 -560 14 l-560 0 1 23 c0 12 10 74 22 137 l22 115 457 3 456 2 34 48 c19 26 76 104 126 174 51 70 92 129 92 132 0 3 -340 6 -755 6 -596 0 -757 -3 -760 -12z"/>
      </g>
    </svg>
  </g>
</svg>
