<svg xmlns="http://www.w3.org/2000/svg" viewBox="0 0 1024 1024" preserveAspectRatio="xMidYMid meet">
  <rect width="1024" height="1024" rx="192" fill="#000000"/>
  <svg x="112" y="418" width="800" height="188" viewBox="0 0 712 167" preserveAspectRatio="xMidYMid meet">
    <g transform="translate(0.000000,167.000000) scale(0.100000,-0.100000)" fill="#ffffff" stroke="none">
      <path d="M295 1658 c-4 -12 -23 -121 -125 -703 -23 -126 -70 -389 -106 -584
-54 -288 -63 -355 -52 -362 7 -5 308 -8 668 -6 l655 2 32 160 c18 88 32 172
33 188 l0 27 -440 0 -440 0 -15 24 c-14 21 -8 66 90 627 58 332 105 612 105
622 0 16 -16 17 -200 17 -152 0 -202 -3 -205 -12z"/>
      <path d="M1825 1658 c-6 -20 -65 -333 -65 -346 0 -9 182 -12 733 -12 l732 0
125 177 c69 97 127 181 128 185 2 4 -368 8 -822 8 -653 0 -827 -3 -831 -12z"/>
      <path d="M4326 1648 c-13 -13 -214 -306 -446 -653 -232 -346 -475 -709 -540
-805 -97 -144 -115 -176 -101 -182 22 -9 413 -10 427 0 18 13 291 410 625 910
104 156 191 277 194 270 9 -27 145 -496 145 -502 0 -3 -69 -6 -154 -6 l-153 0
-116 -187 -116 -188 322 -3 323 -2 38 -143 c21 -78 44 -145 50 -149 6 -4 105
-8 219 -8 161 0 209 3 213 13 7 19 -421 1570 -446 1617 -19 36 -45 40 -254 40
-199 0 -206 -1 -230 -22z"/>
      <path d="M5895 1653 c-155 -33 -292 -135 -353 -263 -33 -71 -45 -126 -137
-660 -65 -371 -67 -420 -20 -517 54 -109 149 -178 280 -202 75 -14 727 -14
815 -1 95 15 196 68 268 141 63 64 122 162 141 235 16 59 111 584 111 612 l0
22 -400 0 c-220 0 -400 -1 -400 -3 0 -2 -16 -82 -35 -177 -19 -95 -35 -175
-35 -177 0 -2 88 -3 195 -3 160 0 195 -3 195 -14 0 -45 -35 -185 -52 -209 -38
-53 -63 -57 -343 -57 -377 0 -370 -6 -320 280 14 79 39 228 55 331 31 199 43
235 88 268 52 36 105 41 518 41 l401 0 127 179 c69 98 126 181 126 185 0 3
-260 6 -577 5 -474 0 -591 -3 -648 -16z"/>
      <path d="M1705 1008 c-4 -11 -165 -865 -182 -964 -4 -26 -2 -32 18 -37 30 -8
1466 -9 1496 -1 24 6 23 5 69 227 13 65 24 125 24 133 0 12 -78 14 -560 14
l-560 0 1 23 c0 12 10 74 22 137 l22 115 457 3 456 2 34 48 c19 26 76 104 126
174 51 70 92 129 92 132 0 3 -340 6 -755 6 -596 0 -757 -3 -760 -12z"/>
    </g>
  </svg>
</svg>
